# xmcd
# 
# Track frame offsets:
#     150
#     18300
#     39300
#     56700
#     74850
#     95850
# 
# Disc length: 1508
# 
# Revision: 0
# Processed by: cddbd v1.5.2PL0 Copyright (c) Steve Scherf et al.
# Submitted via: fre:ac v1.0.31
# 
DISCID=5505e206
DTITLE=MOSAIC.WAV - シタギスキマ～スキマジック～
DYEAR=2019
DGENRE=APOP
TTITLE0=オシタギドローイング
TTITLE1=好き【】【】スキマジック
TTITLE2=SS Impact
TTITLE3=オシタギドローイング Off Vocal
TTITLE4=好き【】【】スキマジック Off Vocal
TTITLE5=SS Impact Off Vocal
EXTD=YEAR: 2019/08
EXTT0=
EXTT1=
EXTT2=
EXTT3=
EXTT4=
EXTT5=
PLAYORDER=
